<?xml version="1.0" standalone="no"?>
<!DOCTYPE svg PUBLIC "-//W3C//DTD SVG 20010904//EN"
 "http://www.w3.org/TR/2001/REC-SVG-20010904/DTD/svg10.dtd">
<svg version="1.0" xmlns="http://www.w3.org/2000/svg"
 width="100.000000pt" height="116.000000pt" viewBox="0 0 100.000000 116.000000"
 preserveAspectRatio="xMidYMid meet">

<g transform="translate(0.000000,116.000000) scale(0.100000,-0.100000)"
fill="#000000" stroke="none">
<path d="M440 964 c-35 -48 -112 -138 -171 -201 -127 -134 -172 -211 -172
-297 0 -78 33 -132 102 -168 77 -40 147 -38 254 7 16 7 17 4 12 -21 -6 -23
-40 -101 -83 -186 -2 -5 55 -8 127 -8 72 0 131 3 131 6 0 3 -14 22 -31 43 -28
35 -75 158 -65 168 2 3 13 0 24 -6 11 -6 41 -15 67 -21 74 -17 147 2 201 52
51 47 68 91 62 163 -7 86 -47 151 -166 272 -59 60 -131 145 -161 188 -30 44
-57 84 -61 88 -4 4 -35 -31 -70 -79z"/>
</g>
</svg>
