<?xml version="1.0" standalone="no"?>
<!DOCTYPE svg PUBLIC "-//W3C//DTD SVG 20010904//EN"
 "http://www.w3.org/TR/2001/REC-SVG-20010904/DTD/svg10.dtd">
<svg version="1.0" xmlns="http://www.w3.org/2000/svg"
 width="260.000000pt" height="300.000000pt" viewBox="0 0 260.000000 300.000000"
 preserveAspectRatio="xMidYMid meet">

<g transform="translate(0.000000,300.000000) scale(0.100000,-0.100000)"
fill="#000000" stroke="none">
<path d="M1145 2822 c-131 -126 -341 -349 -450 -477 -347 -409 -505 -696 -505
-916 0 -136 46 -245 142 -336 185 -174 509 -209 715 -77 59 38 67 30 34 -34
-31 -62 -93 -129 -218 -239 -123 -108 -150 -140 -140 -167 6 -14 54 -16 511
-16 394 0 505 3 509 13 9 25 -13 56 -95 128 -147 130 -234 223 -263 283 -15
31 -25 59 -22 62 2 3 24 -9 48 -25 169 -119 458 -111 655 18 104 67 167 156
199 278 61 235 -82 537 -470 993 -182 213 -545 592 -567 590 -2 0 -39 -35 -83
-78z m454 -377 c165 -181 290 -338 401 -503 228 -338 273 -550 155 -729 -156
-235 -585 -288 -772 -96 -25 26 -50 43 -60 41 -25 -5 -36 -61 -23 -121 21
-101 96 -199 283 -365 l59 -52 -409 0 -408 1 80 72 c128 114 190 183 226 250
29 54 33 72 34 137 0 95 -16 103 -84 36 -86 -84 -209 -122 -366 -113 -147 9
-269 62 -356 154 -73 77 -103 148 -107 254 -3 75 0 97 28 180 59 176 202 403
424 669 111 133 166 192 354 383 l176 178 119 -118 c65 -65 176 -181 246 -258z"/>
</g>
</svg>
